# File created by Blade
# Date/Time:  Thu Jan 22 19:34:15 2015
# Frame Rate: 120.000 fps
#------------------------------------------------------
:FULLY-SPECIFIED
:DEGREES
878
root -13.830658 14.751644 -9.249617 24.335018 -29.930193 27.763942
RightUpLeg -128.918626 -23.826644 -5.907803
RightLeg 137.281286 -0.000000 -0.000000
RightFoot -45.825439 -9.611253 6.212443
RightToeBase -2.403407 -0.000000 0.000000
LeftUpLeg -12.927131 35.150791 24.873518
LeftLeg 6.032831 -0.000000 -0.000000
LeftFoot -7.842003 14.311793 -40.118357
LeftToeBase 18.554215 -0.000000 -0.000000
Spine 14.439073 7.356324 28.712893
RightShoulder -2.587146 -1.097528 -11.288031
RightArm 17.386667 40.659915 82.030366
RightForeArm -28.645738 -0.000000 42.438216
RightHand 28.981004 -0.000000 -86.892755
RightHandThumb1 -24.326973 -0.000000 -32.862282
LeftShoulder -30.478039 -14.346875 64.070213
LeftArm 67.141556 -55.504000 -30.145897
LeftForeArm 19.984352 -0.000000 12.428624
LeftHand -0.398998 0.000000 16.848429
LeftHandThumb1 -26.253704 0.000000 33.147579
Head 9.817615 38.273178 51.963259
879
root -13.828111 14.769103 -9.249001 24.377078 -29.988356 27.747816
RightUpLeg -128.938086 -23.803283 -5.863413
RightLeg 137.202595 -0.000000 -0.000000
RightFoot -45.779782 -9.577306 6.168083
RightToeBase -2.445868 -0.000000 0.000000
LeftUpLeg -12.934139 35.122101 24.839855
LeftLeg 6.028464 -0.000000 -0.000000
LeftFoot -7.891577 14.384329 -39.940523
LeftToeBase 18.432565 -0.000000 -0.000000
Spine 14.445278 7.358225 28.696832
RightShoulder -2.581809 -1.080407 -11.296136
RightArm 17.521901 40.520134 81.961871
RightForeArm -28.528376 -0.000000 42.143554
RightHand 28.963112 -0.000000 -87.184598
RightHandThumb1 -24.326973 -0.000000 -32.862282
LeftShoulder -30.469775 -14.358097 64.095761
LeftArm 67.168688 -55.439384 -30.162718
LeftForeArm 20.031815 0.000000 12.365024
LeftHand -0.358613 -0.000000 16.741136
LeftHandThumb1 -26.253704 0.000000 33.147579
Head 9.795066 38.295288 51.886953
880
root -13.825408 14.784980 -9.247248 24.410505 -30.051307 27.740884
RightUpLeg -128.956239 -23.770655 -5.833225
RightLeg 137.132692 -0.000000 -0.000000
RightFoot -45.734965 -9.552918 6.154762
RightToeBase -2.441591 -0.000000 0.000000
LeftUpLeg -12.936884 35.107227 24.795496
LeftLeg 6.034627 -0.000000 -0.000000
LeftFoot -7.946736 14.450373 -39.738100
LeftToeBase 18.287472 -0.000000 -0.000000
Spine 14.454023 7.360533 28.669273
RightShoulder -2.569703 -1.065720 -11.301690
RightArm 17.653480 40.396815 81.903932
RightForeArm -28.415285 -0.000000 41.868296
RightHand 28.959773 -0.000000 -87.445719
RightHandThumb1 -24.326973 -0.000000 -32.862282
LeftShoulder -30.474734 -14.409160 64.145191
LeftArm 67.135639 -55.318357 -30.121446
LeftForeArm 20.127101 -0.000000 12.295810
LeftHand -0.374466 -0.000000 16.657927
LeftHandThumb1 -26.253704 0.000000 33.147579
Head 9.770163 38.314816 51.838729
881
root -13.821560 14.798590 -9.244597 24.440476 -30.108008 27.733561
RightUpLeg -128.962638 -23.748788 -5.827650
RightLeg 137.069185 -0.000000 -0.000000
RightFoot -45.687755 -9.543445 6.102099
RightToeBase -2.533537 -0.000000 0.000000
LeftUpLeg -12.934774 35.113323 24.764042
LeftLeg 6.029709 -0.000000 -0.000000
LeftFoot -7.966641 14.471669 -39.587491
LeftToeBase 18.288073 -0.000000 -0.000000
Spine 14.457987 7.351382 28.639802
RightShoulder -2.566303 -1.089935 -11.307246
RightArm 17.817090 40.244283 81.860224
RightForeArm -28.276307 0.000000 41.596019
RightHand 29.024675 0.000000 -87.673022
RightHandThumb1 -24.326973 -0.000000 -32.862282
LeftShoulder -30.460552 -14.466716 64.213931
LeftArm 67.100509 -55.221932 -30.097376
LeftForeArm 20.351488 -0.000000 12.208833
LeftHand -0.411531 0.000000 16.386296
LeftHandThumb1 -26.253704 0.000000 33.147579
Head 9.770288 38.312281 51.828906
882
root -13.819769 14.811432 -9.242594 24.488194 -30.164602 27.714238
RightUpLeg -128.976320 -23.707362 -5.817160
RightLeg 137.007976 -0.000000 -0.000000
RightFoot -45.666675 -9.543155 6.092331
RightToeBase -2.477318 -0.000000 0.000000
LeftUpLeg -12.939594 35.111582 24.739040
LeftLeg 6.021889 -0.000000 -0.000000
LeftFoot -7.986757 14.529881 -39.389630
LeftToeBase 18.273824 -0.000000 -0.000000
Spine 14.448341 7.353982 28.610397
RightShoulder -2.569367 -1.105386 -11.292072
RightArm 17.983763 40.111391 81.826490
RightForeArm -28.154545 -0.000000 41.336923
RightHand 29.012388 -0.000000 -87.851929
RightHandThumb1 -24.326973 -0.000000 -32.862282
LeftShoulder -30.452073 -14.490361 64.253266
LeftArm 67.126498 -55.147115 -30.087185
LeftForeArm 20.442684 -0.000000 12.094105
LeftHand -0.338051 -0.000000 16.051549
LeftHandThumb1 -26.253704 0.000000 33.147579
Head 9.793690 38.405601 51.863947
883
root -13.816261 14.823079 -9.237613 24.521327 -30.227377 27.702801
RightUpLeg -128.976243 -23.675409 -5.829076
RightLeg 136.950325 -0.000000 -0.000000
RightFoot -45.633417 -9.466114 6.099582
RightToeBase -2.535821 -0.000000 0.000000
LeftUpLeg -12.929391 35.170434 24.696927
LeftLeg 6.004459 -0.000000 -0.000000
LeftFoot -7.988238 14.531604 -39.224285
LeftToeBase 18.235814 -0.000000 -0.000000
Spine 14.409383 7.344658 28.608691
RightShoulder -2.535694 -1.090975 -11.338363
RightArm 18.091883 40.054044 81.827262
RightForeArm -28.156306 -0.000000 41.077564
RightHand 29.035872 0.000000 -88.073962
RightHandThumb1 -24.326973 -0.000000 -32.862282
LeftShoulder -30.344304 -14.530489 64.226305
LeftArm 67.149906 -55.113200 -30.095485
LeftForeArm 20.746622 -0.000000 12.040756
LeftHand -0.471414 -0.000000 15.735642
LeftHandThumb1 -26.253704 0.000000 33.147579
Head 9.965359 38.402825 51.915462
884
root -13.813686 14.833122 -9.233817 24.568461 -30.273105 27.678425
RightUpLeg -128.978966 -23.637684 -5.822612
RightLeg 136.908116 -0.000000 -0.000000
RightFoot -45.633151 -9.476145 6.095003
RightToeBase -2.492726 -0.000000 0.000000
LeftUpLeg -12.932482 35.193119 24.677754
LeftLeg 5.994740 -0.000000 -0.000000
LeftFoot -8.007731 14.562108 -39.071784
LeftToeBase 18.257280 -0.000000 -0.000000
Spine 14.387263 7.353709 28.597576
RightShoulder -2.525624 -1.101653 -11.328102
RightArm 18.187183 39.954484 81.759037
RightForeArm -28.080333 0.000000 40.875757
RightHand 29.020516 -0.000000 -88.231752
RightHandThumb1 -24.326973 -0.000000 -32.862282
LeftShoulder -30.330126 -14.583796 64.256969
LeftArm 67.224850 -55.032826 -30.124096
LeftForeArm 20.795078 -0.000000 11.919677
LeftHand -0.371125 -0.000000 15.364005
LeftHandThumb1 -26.253704 0.000000 33.147579
Head 9.997948 38.451466 51.971738
885
root -13.811408 14.841067 -9.231790 24.611448 -30.301542 27.651421
RightUpLeg -128.970874 -23.608801 -5.829850
RightLeg 136.867712 -0.000000 -0.000000
RightFoot -45.643688 -9.513643 6.104979
RightToeBase -2.379970 -0.000000 0.000000
LeftUpLeg -12.951522 35.202848 24.669564
LeftLeg 6.009133 -0.000000 -0.000000
LeftFoot -8.043651 14.594685 -39.006057
LeftToeBase 18.327053 -0.000000 -0.000000
Spine 14.396762 7.354972 28.578818
RightShoulder -2.561007 -1.102461 -11.297215
RightArm 18.268113 39.779648 81.657824
RightForeArm -27.920670 -0.000000 40.703986
RightHand 29.062125 -0.000000 -88.335830
RightHandThumb1 -24.326973 -0.000000 -32.862282
LeftShoulder -30.389471 -14.655018 64.337232
LeftArm 67.260983 -54.899132 -30.116294
LeftForeArm 20.766965 -0.000000 11.787115
LeftHand -0.294205 -0.000000 15.188858
LeftHandThumb1 -26.253704 0.000000 33.147579
Head 9.931226 38.481885 51.988502
886
root -13.809787 14.846932 -9.228733 24.664334 -30.330689 27.597126
RightUpLeg -128.957978 -23.563077 -5.817981
RightLeg 136.834379 -0.000000 -0.000000
RightFoot -45.636215 -9.502179 6.136902
RightToeBase -2.457623 -0.000000 0.000000
LeftUpLeg -12.944553 35.191883 24.706258
LeftLeg 6.014717 -0.000000 -0.000000
LeftFoot -8.089278 14.642461 -39.008752
LeftToeBase 18.317363 -0.000000 -0.000000
Spine 14.390320 7.338590 28.596001
RightShoulder -2.538228 -1.189012 -11.284041
RightArm 18.402636 39.671218 81.638832
RightForeArm -27.793579 -0.000000 40.611297
RightHand 29.078658 -0.000000 -88.343975
RightHandThumb1 -24.326973 -0.000000 -32.862282
LeftShoulder -30.391577 -14.654102 64.365372
LeftArm 67.329076 -54.854856 -30.173695
LeftForeArm 20.965291 -0.000000 11.736872
LeftHand -0.379998 -0.000000 14.716262
LeftHandThumb1 -26.253704 0.000000 33.147579
Head 9.939663 38.509735 52.056943
887
root -13.807053 14.851668 -9.225396 24.699346 -30.352016 27.569071
RightUpLeg -128.943855 -23.540506 -5.831716
RightLeg 136.805068 -0.000000 -0.000000
RightFoot -45.637704 -9.464113 6.181751
RightToeBase -2.453152 -0.000000 0.000000
LeftUpLeg -12.940625 35.153643 24.725612
LeftLeg 6.029389 -0.000000 -0.000000
LeftFoot -8.153198 14.681063 -39.099094
LeftToeBase 18.333144 -0.000000 -0.000000
Spine 14.390299 7.338401 28.600246
RightShoulder -2.560590 -1.144356 -11.255720
RightArm 18.409356 39.611721 81.561926
RightForeArm -27.747722 -0.000000 40.545826
RightHand 29.141761 0.000000 -88.365466
RightHandThumb1 -24.326973 -0.000000 -32.862282
LeftShoulder -30.399266 -14.685986 64.403063
LeftArm 67.414209 -54.812755 -30.268342
LeftForeArm 21.042334 -0.000000 11.693243
LeftHand -0.454604 -0.000000 14.485504
LeftHandThumb1 -26.253704 0.000000 33.147579
Head 9.927284 38.484428 52.080666
888
root -13.804966 14.853808 -9.221389 24.740825 -30.365696 27.521470
RightUpLeg -128.928978 -23.510330 -5.826121
RightLeg 136.787961 -0.000000 -0.000000
RightFoot -45.644906 -9.479919 6.213670
RightToeBase -2.455904 -0.000000 0.000000
LeftUpLeg -12.923953 35.128883 24.774564
LeftLeg 6.020177 -0.000000 -0.000000
LeftFoot -8.199391 14.696009 -39.343741
LeftToeBase 18.307670 -0.000000 -0.000000
Spine 14.384527 7.351624 28.628865
RightShoulder -2.582078 -1.161726 -11.234629
RightArm 18.447412 39.553735 81.516147
RightForeArm -27.723910 -0.000000 40.511359
RightHand 29.107203 0.000000 -88.358238
RightHandThumb1 -24.326973 -0.000000 -32.862282
LeftShoulder -30.381367 -14.705302 64.421619
LeftArm 67.501067 -54.790814 -30.358583
LeftForeArm 21.057227 0.000000 11.645081
LeftHand -0.489033 -0.000000 14.323473
LeftHandThumb1 -26.253704 0.000000 33.147579
Head 9.909788 38.454507 52.112923
889
root -13.801577 14.854948 -9.214849 24.768141 -30.373009 27.490833
RightUpLeg -128.905445 -23.525246 -5.862385
RightLeg 136.804796 -0.000000 -0.000000
RightFoot -45.669393 -9.429776 6.236806
RightToeBase -2.244856 -0.000000 0.000000
LeftUpLeg -12.900021 35.123083 24.805332
LeftLeg 6.004750 -0.000000 -0.000000
LeftFoot -8.224681 14.669527 -39.606817
LeftToeBase 18.248914 -0.000000 -0.000000
Spine 14.384223 7.332656 28.648875
RightShoulder -2.564934 -1.214301 -11.209653
RightArm 18.472019 39.510027 81.468550
RightForeArm -27.659342 -0.000000 40.569167
RightHand 29.078207 -0.000000 -88.288844
RightHandThumb1 -24.326973 -0.000000 -32.862282
LeftShoulder -30.385988 -14.708011 64.435457
LeftArm 67.542208 -54.757766 -30.390864
LeftForeArm 21.013935 -0.000000 11.606767
LeftHand -0.493657 -0.000000 14.111580
LeftHandThumb1 -26.253704 0.000000 33.147579
Head 9.875520 38.438643 52.146423
